# xmcd
#
# Track frame offsets: 
#        150
#        15430
#        32233
#        48753
#        65068
#        83393
#        98980
#        112763
#        129028
#        146750
#
# Disc length: 2190 seconds
#
# Revision: 5
# Processed by: cddbd v1.5.2PL0 Copyright (c) Steve Scherf et al.
# Submitted via: ExactAudioCopy v0.90b4
#
DISCID=72088c0a
DTITLE=Blackhawk - BlackHawk
DYEAR=1994
DGENRE=Country
TTITLE0=Goodbye Says It All
TTITLE1=Down In Flames
TTITLE2=Every Once In A While
TTITLE3=I Sure Can Smell The Rain
TTITLE4=That's Just About Right
TTITLE5=One More Heartache
TTITLE6=Love Like This
TTITLE7=Between Ragged And Wrong
TTITLE8=Stone By Stone
TTITLE9=Let 'Em Whirl
EXTD=
EXTT0=
EXTT1=
EXTT2=
EXTT3=
EXTT4=
EXTT5=
EXTT6=
EXTT7=
EXTT8=
EXTT9=
PLAYORDER=
